<svg xmlns="http://www.w3.org/2000/svg" height="1296" width="1546" version="1.1" xmlns:xlink="http://www.w3.org/1999/xlink" xmlns:svgjs="http://svgjs.com/svgjs"><rect fill="#0000" width="1546" height="1296"></rect><g><path d="M1379 1005.4L1328.9 999.61 1336.2 956.31C1336.4 955.31 1335.8 954.41 1334.9 954.11 1334 953.81 1333 954.21 1332.5 955.01L1312.5 990.61 1279.2 954.51C1278.5 953.81 1277.4 953.61 1276.6 954.21 1275.8 954.81 1275.5 955.81 1275.9 956.71L1296.8 1000.5 1261.3 1008.5C1260.4 1008.7 1259.7 1009.5 1259.7 1010.5 1259.7 1011.5 1260.4 1012.3 1261.3 1012.4L1297.4 1018.9 1282.9 1073.7C1282.6 1074.7 1283.1 1075.7 1284.1 1076.1 1284.3 1076.2 1284.6 1076.3 1284.9 1076.3 1285.6 1076.3 1286.3 1075.9 1286.6 1075.3L1313.9 1028.2 1338.4 1054.8C1339 1055.5 1340.1 1055.7 1340.9 1055.2 1341.7 1054.7 1342.1 1053.7 1341.7 1052.8L1329.4 1018.4 1379 1009.3C1380 1009.1 1380.7 1008.3 1380.6 1007.3 1380.5 1006.3 1380 1005.5 1379 1005.4Z" fill="#ff4f32" opacity="1" stroke-width="4" stroke="none"></path></g><g><path d="M1121.7 230.4C1129.6 230.4 1136 224 1136 216.1 1136 208.2 1129.6 201.8 1121.7 201.8 1113.8 201.8 1107.4 208.2 1107.4 216.1 1107.4 224 1113.8 230.4 1121.7 230.4Z" fill="#ffffff" opacity="1" stroke-width="4" stroke="none"></path></g><g><path d="M1174.8 802.4C1204.5 823.9 1271.5 798.6 1312.9 773.8 1358.9 746.2 1361 716.5 1342.6 716.5 1317 716.5 1253.6 795.3 1290.4 812.6 1320.8 827 1376.3 801.4 1390.6 817.7 1404.9 834 1411.1 869.9 1450.9 888.3" stroke="#ffffff" stroke-width="4" stroke-linecap="round" stroke-linejoin="round" opacity="1" fill="none"></path></g><g><path d="M303.4 1036.4C312.46 1036.4 319.8 1029.06 319.8 1020 319.8 1010.94 312.46 1003.6 303.4 1003.6 294.34 1003.6 287 1010.94 287 1020 287 1029.06 294.34 1036.4 303.4 1036.4Z" fill="#3c2c5b" opacity="1" stroke-width="4" stroke="none"></path></g><g><path d="M1150.8 1118.2C1160.68 1118.2 1168.7 1110.19 1168.7 1100.3 1168.7 1090.41 1160.68 1082.4 1150.8 1082.4 1140.91 1082.4 1132.9 1090.41 1132.9 1100.3 1132.9 1110.19 1140.91 1118.2 1150.8 1118.2Z" fill="#61ccff" opacity="1" stroke-width="4" stroke="none"></path></g><g><path d="M162.36 513.6C172.8 513.6 181.26 505.14 181.26 494.7 181.26 484.26 172.8 475.8 162.36 475.8 151.92 475.8 143.46 484.26 143.46 494.7 143.46 505.14 151.92 513.6 162.36 513.6Z" fill="#61ccff" opacity="1" stroke-width="4" stroke="none"></path></g><g><path d="M248.1 642.93C259.07 635.02 261.56 619.71 253.65 608.74 245.73 597.76 230.42 595.27 219.45 603.19 208.47 611.1 205.99 626.41 213.9 637.39 221.81 648.36 237.12 650.85 248.1 642.93Z" fill="#ffa0dc" opacity="1" stroke-width="4" stroke="none"></path></g><g><path d="M107 856.3C146.5 821.5 219.7 774.5 281 814.4 281 814.4 220.7 735.6 251.4 698.8 291.5 650.6 409.5 781.6 391.8 804.1 373.6 827.1 332.9 724.2 354.2 667 371 622 451.2 689.5 464.1 729.4" stroke="#ffffff" stroke-width="4" stroke-linecap="round" stroke-linejoin="round" opacity="1" fill="none"></path></g><g><path d="M1183 322.4H1099.1C1099.1 322.4 1089.4 372 1118.6 398.3H1202.5C1173.3 372 1183 322.4 1183 322.4Z" fill="#ffa0dc" opacity="1" stroke-width="4" stroke="none"></path><path d="M1065.4 279.5H981.5C981.5 279.5 971.8 329.1 1001 355.4H1084.9C1055.6 329.1 1065.4 279.5 1065.4 279.5Z" fill="#ffc930" opacity="1" stroke-width="4" stroke="none"></path></g><g><path d="M858.5 161.5H945C964.9 161.5 981 177.6 981 197.5V199.1C981 219 964.9 235.1 945 235.1H858.5C838.6 235.1 822.5 219 822.5 199.1V197.5C822.5 177.6 838.6 161.5 858.5 161.5Z" fill="#ff4f32" opacity="1" stroke-width="4" stroke="none"></path><path d="M874.3 203.1C880.21 203.1 885 198.31 885 192.4 885 186.49 880.21 181.7 874.3 181.7 868.39 181.7 863.6 186.49 863.6 192.4 863.6 198.31 868.39 203.1 874.3 203.1Z" stroke="#ffffff" stroke-width="4" stroke-linecap="round" stroke-linejoin="round" opacity="1" fill="none"></path><path d="M882.9 198.9L870 215" stroke="#ffffff" stroke-width="4" stroke-linecap="round" stroke-linejoin="round" opacity="1" fill="none"></path><path d="M907.6 203.1C913.51 203.1 918.3 198.31 918.3 192.4 918.3 186.49 913.51 181.7 907.6 181.7 901.69 181.7 896.9 186.49 896.9 192.4 896.9 198.31 901.69 203.1 907.6 203.1Z" stroke="#ffffff" stroke-width="4" stroke-linecap="round" stroke-linejoin="round" opacity="1" fill="none"></path><path d="M916.2 198.9L903.3 215" stroke="#ffffff" stroke-width="4" stroke-linecap="round" stroke-linejoin="round" opacity="1" fill="none"></path><path d="M936.6 190.8V205.9" stroke="#ffffff" stroke-width="4" stroke-linecap="round" stroke-linejoin="round" opacity="1" fill="none"></path><path d="M944.1 198.4H929.1" stroke="#ffffff" stroke-width="4" stroke-linecap="round" stroke-linejoin="round" opacity="1" fill="none"></path></g><g><path d="M967.38 530.24C953.7 530.24 942.57 519.12 942.57 505.44V425.43C942.57 411.75 953.7 400.62 967.38 400.62H1060.14C1073.82 400.62 1084.95 411.75 1084.95 425.43V505.44C1084.95 519.12 1073.82 530.24 1060.14 530.24H967.38Z" fill="#61ccff" opacity="1" stroke-width="4" stroke="none"></path><path d="M987.49 492.54C981.46 492.54 976.56 487.64 976.56 481.61V449.25C976.56 443.22 981.46 438.32 987.49 438.32H1021.97C1028 438.32 1032.9 443.22 1032.9 449.25V481.61C1032.9 487.64 1028 492.54 1021.97 492.54H987.49Z" fill="#3c2c5b" opacity="1" stroke-width="4" stroke="none"></path><path d="M1047.84 486.94C1046.65 486.94 1045.51 486.55 1044.58 485.8L1024.64 469.91C1024.34 469.67 1024.06 469.39 1023.81 469.08 1022.94 467.98 1022.55 466.62 1022.7 465.23 1022.86 463.84 1023.55 462.59 1024.64 461.72L1044.58 445.82C1045.5 445.09 1046.67 444.68 1047.84 444.68 1050.74 444.68 1053.08 447.03 1053.08 449.92V481.71C1053.08 482.89 1052.67 484.05 1051.93 484.97 1050.93 486.23 1049.44 486.94 1047.84 486.94Z" fill="#3c2c5b" opacity="1" stroke-width="4" stroke="none"></path></g><g><path d="M487.29 766.49H749.27C759.93 766.49 768.49 775.12 768.49 785.78V985.45C768.49 996.11 759.86 1004.67 749.27 1004.67H487.29C476.63 1004.67 468 996.04 468 985.45V785.78C468.07 775.12 476.63 766.49 487.29 766.49Z" fill="#000000" opacity="0.2" stroke-width="4" stroke="none"></path><path d="M477.77 756.97H739.75C750.41 756.97 758.97 765.6 758.97 776.26V975.93C758.97 986.59 750.34 995.15 739.75 995.15H477.77C467.12 995.15 458.49 986.52 458.49 975.93V776.26C458.55 765.6 467.12 756.97 477.77 756.97Z" fill="#61ccff" opacity="1" stroke-width="4" stroke="none"></path><path d="M501.12 781.65H583.92C588.81 781.65 592.8 785.65 592.8 790.54V790.92C592.8 795.8 588.81 799.8 583.92 799.8H501.12C496.24 799.8 492.24 795.8 492.24 790.92V790.54C492.24 785.65 496.24 781.65 501.12 781.65Z" fill="#ffffff" opacity="1" stroke-width="4" stroke="none"></path><path d="M705.55 781.65H758.97V799.8H705.55C700.67 799.8 696.67 795.8 696.67 790.92V790.54C696.67 785.65 700.67 781.65 705.55 781.65Z" fill="#ffffff" opacity="1" stroke-width="4" stroke="none"></path><path d="M570.6 866.36H598.26C603.15 866.36 607.14 870.35 607.14 875.24V875.62C607.14 880.5 603.15 884.5 598.26 884.5H570.6C565.71 884.5 561.72 880.5 561.72 875.62V875.24C561.72 870.29 565.71 866.36 570.6 866.36Z" fill="#3c2c5b" opacity="1" stroke-width="4" stroke="none"></path><path d="M543.32 951.06H570.98C575.86 951.06 579.86 955.05 579.86 959.94V960.32C579.86 965.21 575.86 969.2 570.98 969.2H543.32C538.43 969.2 534.43 965.21 534.43 960.32V959.94C534.43 954.99 538.43 951.06 543.32 951.06Z" fill="#3c2c5b" opacity="1" stroke-width="4" stroke="none"></path><path d="M603.72 951.06H657.33C662.22 951.06 666.21 955.05 666.21 959.94V960.32C666.21 965.21 662.22 969.2 657.33 969.2H603.72C598.83 969.2 594.84 965.21 594.84 960.32V959.94C594.84 954.99 598.77 951.06 603.72 951.06Z" fill="#3c2c5b" opacity="1" stroke-width="4" stroke="none"></path><path d="M570.6 908.67H665.07C669.96 908.67 673.95 912.67 673.95 917.56V917.94C673.95 922.82 669.96 926.82 665.07 926.82H570.6C565.71 926.82 561.72 922.82 561.72 917.94V917.56C561.72 912.67 565.71 908.67 570.6 908.67Z" fill="#ffa0dc" opacity="1" stroke-width="4" stroke="none"></path><path d="M501.12 823.97H583.92C588.81 823.97 592.8 827.97 592.8 832.86V833.24C592.8 838.12 588.81 842.12 583.92 842.12H501.12C496.24 842.12 492.24 838.12 492.24 833.24V832.86C492.24 827.97 496.24 823.97 501.12 823.97Z" fill="#9e76dd" opacity="1" stroke-width="4" stroke="none"></path><path d="M627.7 823.85H669.64C674.53 823.85 678.52 827.84 678.52 832.73V833.11C678.52 837.99 674.53 841.99 669.64 841.99H627.7C622.82 841.99 618.82 837.99 618.82 833.11V832.73C618.82 827.78 622.82 823.85 627.7 823.85Z" fill="#9e76dd" opacity="1" stroke-width="4" stroke="none"></path><path d="M477.77 756.97H513.69V995.15H477.77C467.12 995.15 458.49 986.52 458.49 975.93V776.26C458.49 765.6 467.12 756.97 477.77 756.97Z" fill="#61ccff" opacity="1" stroke-width="4" stroke="none"></path><path d="M477.77 756.97H513.69V995.15H477.77C467.12 995.15 458.49 986.52 458.49 975.93V776.26C458.49 765.6 467.12 756.97 477.77 756.97Z" fill="#07afff" opacity="0.2" stroke-width="4" stroke="none"></path><path d="M758.97 811.54H514.32" stroke="#3dc0ff" stroke-width="4" stroke-linejoin="round" opacity="1" fill="none"></path><path d="M758.97 854.36H514.32" stroke="#3dc0ff" stroke-width="4" stroke-linejoin="round" opacity="1" fill="none"></path><path d="M758.97 897.83H514.32" stroke="#3dc0ff" stroke-width="4" stroke-linejoin="round" opacity="1" fill="none"></path><path d="M758.97 938.69H514.32" stroke="#3dc0ff" stroke-width="4" stroke-linejoin="round" opacity="1" fill="none"></path><path d="M513.69 756.97V995.15" stroke="#000000" stroke-width="4" stroke-linejoin="round" opacity="1" fill="none"></path><path d="M479.93 790.73H492.24" stroke="#000000" stroke-width="4" stroke-linecap="round" stroke-linejoin="round" opacity="1" fill="none"></path><path d="M479.93 832.92H492.24" stroke="#000000" stroke-width="4" stroke-linecap="round" stroke-linejoin="round" opacity="1" fill="none"></path><path d="M479.93 875.11H492.24" stroke="#000000" stroke-width="4" stroke-linecap="round" stroke-linejoin="round" opacity="1" fill="none"></path><path d="M479.93 917.94H492.24" stroke="#000000" stroke-width="4" stroke-linecap="round" stroke-linejoin="round" opacity="1" fill="none"></path><path d="M479.93 960.13H492.24" stroke="#000000" stroke-width="4" stroke-linecap="round" stroke-linejoin="round" opacity="1" fill="none"></path></g><g><path d="M328.49 599.45C319.61 599.44 311.09 595.91 304.81 589.63 298.53 583.35 295 574.83 294.99 565.96V248.49C295 239.62 298.53 231.1 304.81 224.82 311.09 218.54 319.61 215.01 328.49 215H740.36C749.24 215.01 757.75 218.54 764.03 224.82 770.31 231.1 773.84 239.62 773.86 248.49V565.96C773.84 574.83 770.31 583.35 764.03 589.63 757.75 595.91 749.24 599.44 740.36 599.45H328.49Z" fill="#cecece" opacity="1" stroke-width="4" stroke="none"></path><path d="M295.01 286.96H775.33" stroke="#e1e1e1" stroke-width="4" opacity="1" fill="none"></path><path d="M330.23 262.98C337.27 262.98 342.97 257.28 342.97 250.24 342.97 243.2 337.27 237.5 330.23 237.5 323.2 237.5 317.49 243.2 317.49 250.24 317.49 257.28 323.2 262.98 330.23 262.98Z" fill="#e1e1e1" opacity="1" stroke-width="4" stroke="none"></path><path d="M368.84 262.98C375.87 262.98 381.58 257.28 381.58 250.24 381.58 243.2 375.87 237.5 368.84 237.5 361.8 237.5 356.1 243.2 356.1 250.24 356.1 257.28 361.8 262.98 368.84 262.98Z" fill="#e1e1e1" opacity="1" stroke-width="4" stroke="none"></path><path d="M407.43 262.98C414.47 262.98 420.17 257.28 420.17 250.24 420.17 243.2 414.47 237.5 407.43 237.5 400.4 237.5 394.7 243.2 394.7 250.24 394.7 257.28 400.4 262.98 407.43 262.98Z" fill="#e1e1e1" opacity="1" stroke-width="4" stroke="none"></path></g><g><path d="M374.31 331.43H503.61C511.83 331.43 518.53 338.13 518.53 346.35 518.53 354.58 511.83 361.27 503.61 361.27H374.31C366.09 361.27 359.39 354.58 359.39 346.35 359.39 338.13 366.09 331.43 374.31 331.43Z" fill="#3c2c5b" opacity="1" stroke-width="4" stroke="none"></path><path d="M374.31 393.1H449.9C458.12 393.1 464.82 399.8 464.82 408.02 464.82 416.24 458.12 422.94 449.9 422.94H374.31C366.09 422.94 359.39 416.24 359.39 408.02 359.39 399.8 366.09 393.1 374.31 393.1Z" fill="#5a5a5a" opacity="1" stroke-width="4" stroke="none"></path><path d="M499.63 393.1H523.5C531.73 393.1 538.42 399.8 538.42 408.02 538.42 416.24 531.73 422.94 523.5 422.94H499.63C491.41 422.94 484.71 416.24 484.71 408.02 484.71 399.8 491.41 393.1 499.63 393.1Z" fill="#61ccff" opacity="1" stroke-width="4" stroke="none"></path><path d="M374.31 454.77H392.88C401.1 454.77 407.8 461.47 407.8 469.69 407.8 477.91 401.1 484.61 392.88 484.61H374.31C366.09 484.61 359.39 477.91 359.39 469.69 359.39 461.47 366.09 454.77 374.31 454.77Z" fill="#5a5a5a" opacity="1" stroke-width="4" stroke="none"></path><path d="M442.61 454.77H554.01C562.23 454.77 568.92 461.47 568.92 469.69 568.92 477.91 562.23 484.61 554.01 484.61H442.61C434.38 484.61 427.69 477.91 427.69 469.69 427.69 461.47 434.38 454.77 442.61 454.77Z" fill="#61ccff" opacity="1" stroke-width="4" stroke="none"></path><path d="M603.74 454.77H699.22C707.44 454.77 714.14 461.47 714.14 469.69 714.14 477.91 707.44 484.61 699.22 484.61H603.74C595.51 484.61 588.82 477.91 588.82 469.69 588.82 461.47 595.51 454.77 603.74 454.77Z" fill="#787878" opacity="1" stroke-width="4" stroke="none"></path><path d="M374.31 516.43H433.99C442.21 516.43 448.91 523.13 448.91 531.35 448.91 539.58 442.21 546.27 433.99 546.27H374.31C366.09 546.27 359.39 539.58 359.39 531.35 359.39 523.13 366.09 516.43 374.31 516.43Z" fill="#6f7070" opacity="1" stroke-width="4" stroke="none"></path><path d="M483.72 516.43H496.98C505.2 516.43 511.9 523.13 511.9 531.35 511.9 539.58 505.2 546.27 496.98 546.27H483.72C475.5 546.27 468.8 539.58 468.8 531.35 468.8 523.13 475.5 516.43 483.72 516.43Z" fill="#5a5a5a" opacity="1" stroke-width="4" stroke="none"></path><path d="M546.71 516.43H625.62C633.84 516.43 640.54 523.13 640.54 531.35 640.54 539.58 633.84 546.27 625.62 546.27H546.71C538.49 546.27 531.79 539.58 531.79 531.35 531.79 523.13 538.49 516.43 546.71 516.43Z" fill="#3c2c5b" opacity="1" stroke-width="4" stroke="none"></path></g><g><path d="M324.4 381.4L259 367 278.8 322.7C279.2 321.8 278.9 320.8 278.1 320.2 277.3 319.7 276.2 319.8 275.5 320.4L240.7 355.6 207.1 314.7C206.5 313.9 205.4 313.7 204.6 314.2 203.8 314.7 203.4 315.7 203.7 316.6L221.4 365.2H170.4C169.4 365.2 168.6 365.9 168.4 366.9 168.2 367.9 168.8 368.8 169.7 369.1L221.1 386.8 201.3 434.4C200.9 435.3 201.3 436.3 202.1 436.9 202.9 437.4 204 437.3 204.7 436.6L239.4 398.4 282.6 448.7C283 449.2 283.6 449.4 284.1 449.4 284.5 449.4 284.9 449.3 285.2 449.1 286 448.6 286.3 447.5 285.9 446.6L258.7 388.6 324.1 385.3C325.1 385.3 325.9 384.5 326 383.5 326.1 382.6 325.4 381.7 324.4 381.4Z" fill="#ffc930" opacity="1" stroke-width="4" stroke="none"></path></g><g><path d="M1043.15 661.61H1207.21C1235.92 661.61 1259.27 684.97 1259.27 713.68V877.73C1259.27 906.45 1235.92 929.8 1207.21 929.8H1043.15C1014.44 929.8 991.09 906.45 991.09 877.73V713.68C991.09 684.97 1014.44 661.61 1043.15 661.61Z" fill="#101010" opacity="0.2" stroke-width="4" stroke="none"></path><path d="M1024.01 632.9H1188.06C1216.78 632.9 1240.13 656.25 1240.13 684.97V849.02C1240.13 877.73 1216.78 901.09 1188.06 901.09H1024.01C995.3 901.09 971.94 877.73 971.94 849.02V684.97C971.94 656.25 995.3 632.9 1024.01 632.9Z" fill="#ffa0dc" opacity="1" stroke-width="4" stroke="none"></path><path d="M1072.25 737.42H1040.09L1033.58 755.41H1042.96C1043.92 755.41 1044.69 755.6 1045.45 755.99 1046.03 756.37 1046.22 757.13 1046.22 757.71 1046.22 758.28 1046.03 759.05 1045.45 759.43 1044.69 760.01 1043.92 760.2 1042.96 760.2H1024.59C1023.63 760.2 1022.86 760.01 1022.1 759.43 1021.52 759.05 1021.33 758.28 1021.33 757.71 1021.33 756.94 1021.52 756.37 1022.1 755.99 1022.86 755.41 1023.63 755.22 1024.59 755.41H1028.41L1050.05 697.03H1035.5C1034.54 697.03 1033.77 696.84 1033.01 696.26 1032.05 695.3 1032.05 693.77 1033.01 692.82 1033.77 692.24 1034.54 692.05 1035.5 692.05H1060.19L1084.12 755.41H1087.95C1088.9 755.41 1089.67 755.6 1090.44 755.99 1091.01 756.37 1091.2 757.13 1091.2 757.71 1091.2 758.28 1091.01 759.05 1090.44 759.43 1089.67 760.01 1088.9 760.2 1087.95 760.2H1069.76C1068.81 760.2 1067.85 760.01 1067.27 759.43 1066.7 759.05 1066.51 758.28 1066.51 757.71 1066.51 756.94 1066.7 756.37 1067.27 755.99 1068.04 755.41 1069 755.22 1069.76 755.41H1079.14L1072.25 737.42ZM1070.34 732.63L1056.75 697.03H1055.02L1042.01 732.63H1070.34Z" fill="#ffffff" stroke="#ffffff" stroke-width="4" opacity="1"></path><path d="M1139.82 718.66V714.26C1139.82 711.77 1141.93 709.66 1144.42 709.66H1151.31C1152.27 709.66 1153.03 709.85 1153.8 710.43 1154.37 710.81 1154.56 711.58 1154.56 712.34 1154.56 712.92 1154.37 713.68 1153.8 714.06 1153.03 714.64 1152.27 714.83 1151.31 714.83H1144.8V763.83C1144.8 766.9 1144.04 769.96 1142.7 772.64 1141.55 774.75 1139.82 776.47 1138.1 778 1136.38 779.53 1134.27 780.87 1132.17 781.83 1129.87 782.59 1127.38 783.17 1124.89 782.98H1111.11C1110.15 782.98 1109.39 782.79 1108.62 782.4 1108.05 782.02 1107.86 781.25 1107.86 780.68 1107.86 779.91 1108.05 779.34 1108.62 778.77 1109.39 778.19 1110.15 778 1111.11 778H1125.08C1127.76 778 1130.64 777.23 1132.93 775.7 1135.42 774.17 1137.34 771.87 1138.68 769.19 1139.63 767.28 1140.02 765.17 1140.02 762.88V748.14C1135.42 755.03 1127.96 759.05 1119.72 758.86 1113.22 758.86 1106.9 756.18 1102.3 751.39 1092.54 741.44 1092.54 725.36 1102.3 715.4 1106.71 710.62 1113.02 707.94 1119.72 707.94 1127.76 707.75 1135.42 711.96 1139.82 718.66ZM1139.82 733.4C1140.02 727.85 1137.72 722.68 1133.89 718.85 1126.23 711 1113.79 710.81 1105.94 718.47 1105.75 718.66 1105.75 718.66 1105.56 718.85 1097.71 727.08 1097.71 739.91 1105.56 747.95 1113.22 755.79 1125.66 755.99 1133.51 748.33 1133.7 748.14 1133.7 748.14 1133.89 747.95 1137.72 744.31 1140.02 738.95 1139.82 733.4Z" fill="#ffffff" stroke="#ffffff" stroke-width="4" opacity="1"></path><path d="M1191.89 707.75C1196.75 707.75 1200.7 703.8 1200.7 698.94 1200.7 694.08 1196.75 690.14 1191.89 690.14 1187.03 690.14 1183.09 694.08 1183.09 698.94 1183.09 703.8 1187.03 707.75 1191.89 707.75Z" fill="#ececec" opacity="1" stroke-width="4" stroke="none"></path><path d="M1023.25 836H1084.31" stroke="#000000" stroke-width="4" stroke-linecap="round" stroke-linejoin="round" opacity="1" fill="none"></path></g><g><path d="M1309.2 868.6C1315.55 868.6 1320.7 863.45 1320.7 857.1 1320.7 850.75 1315.55 845.6 1309.2 845.6 1302.85 845.6 1297.7 850.75 1297.7 857.1 1297.7 863.45 1302.85 868.6 1309.2 868.6Z" fill="#3c2c5b" opacity="1" stroke-width="4" stroke="none"></path></g><g><path d="M1212.7 702.4C1275.99 702.4 1327.3 651.09 1327.3 587.8 1327.3 524.51 1275.99 473.2 1212.7 473.2 1149.41 473.2 1098.1 524.51 1098.1 587.8 1098.1 651.09 1149.41 702.4 1212.7 702.4Z" fill="#3c2c5b" opacity="0.2" stroke-width="4" stroke="none"></path><path d="M1241.6 629.5H1255.7" stroke="#23211f" stroke-width="4" stroke-linecap="round" stroke-linejoin="round" opacity="1" fill="none"></path><path d="M1212.7 676.4C1275.99 676.4 1327.3 625.09 1327.3 561.8 1327.3 498.51 1275.99 447.2 1212.7 447.2 1149.41 447.2 1098.1 498.51 1098.1 561.8 1098.1 625.09 1149.41 676.4 1212.7 676.4Z" fill="#ffffff" opacity="1" stroke-width="4" stroke="none"></path><path d="M1256.8 630.6V619.7L1192.3 619.6V631.6H1170.8C1154.5 631.6 1141.4 641.2 1135.5 646.4 1182.2 689.1 1254.6 685.8 1297.3 639.1 1297.9 638.4 1298.6 637.7 1299.2 637 1293 632.9 1285.7 630.7 1278.2 630.5L1256.8 630.6Z" fill="#61ccff" opacity="1" stroke-width="4" stroke="none"></path><path d="M1159.1 567.5C1161.4 555.9 1161.3 541.6 1163.3 528.7 1164.7 519.9 1167 511.8 1171.8 505.8 1183.6 491.1 1215.3 485.4 1240.7 504 1266.1 522.6 1264.8 548.8 1263.8 560.6L1256.7 600.3 1256.8 620H1192.3L1192.2 609.3C1192.2 609.3 1178.1 612.3 1169.8 606.6 1158.6 598.9 1155.2 587 1159.1 567.5Z" fill="#ac704e" opacity="1" stroke-width="4" stroke="none"></path><path d="M1171.8 505.8C1183.6 491.1 1217.2 481.9 1242.6 500.5 1268 519.1 1264.8 548.8 1263.8 560.6L1256.7 600.3C1256.7 600.3 1237.6 594.3 1229.5 579.1 1229.5 579.1 1257.2 566.7 1244.6 548.9 1232.5 531.8 1211.4 552.9 1211.4 552.9 1199.3 548.9 1187.2 531.7 1187.2 531.7 1169.1 532.7 1163.3 528.6 1163.3 528.6 1164.7 519.9 1167 511.8 1171.8 505.8Z" fill="#221f1f" opacity="1" stroke-width="4" stroke="none"></path><path d="M1190.2 561.4C1191.91 561.4 1193.3 560.01 1193.3 558.3 1193.3 556.59 1191.91 555.2 1190.2 555.2 1188.49 555.2 1187.1 556.59 1187.1 558.3 1187.1 560.01 1188.49 561.4 1190.2 561.4Z" fill="#000000" opacity="1" stroke-width="4" stroke="none"></path><path d="M1168.1 559.3C1169.81 559.3 1171.2 557.91 1171.2 556.2 1171.2 554.49 1169.81 553.1 1168.1 553.1 1166.38 553.1 1165 554.49 1165 556.2 1165 557.91 1166.38 559.3 1168.1 559.3Z" fill="#000000" opacity="1" stroke-width="4" stroke="none"></path><path d="M1174.8 566.5C1174.3 568.2 1174 569.7 1174.3 570.3 1174.8 571.2 1175.6 572 1176.5 572.5" stroke="#23211f" stroke-width="4" stroke-linecap="round" stroke-linejoin="round" opacity="1" fill="none"></path><path d="M1185.1 581.2C1183.2 583 1180.5 583.8 1177.9 583.2" stroke="#23211f" stroke-width="4" stroke-linecap="round" stroke-linejoin="round" opacity="1" fill="none"></path><path d="M1204.5 606.8C1200.9 608.4 1196 608.1 1192.2 609.3" stroke="#23211f" stroke-width="4" stroke-linecap="round" stroke-linejoin="round" opacity="1" fill="none"></path><path d="M1229.5 560L1222.5 565" stroke="#23211f" stroke-width="4" stroke-linecap="round" stroke-linejoin="round" opacity="1" fill="none"></path></g><g><path d="M1326.57 417.39H1273.82C1254.43 417.39 1238.66 433.16 1238.66 452.56 1238.66 469.82 1251.2 484.49 1268.23 487.25V505.3L1294.01 487.72H1326.57C1345.96 487.72 1361.73 471.95 1361.73 452.56 1361.73 433.08 1345.96 417.39 1326.57 417.39Z" fill="#3c2c5b" opacity="1" stroke-width="4" stroke="none"></path><path d="M1280.45 456.81C1283.1 456.81 1285.26 454.66 1285.26 452 1285.26 449.35 1283.1 447.19 1280.45 447.19 1277.79 447.19 1275.64 449.35 1275.64 452 1275.64 454.66 1277.79 456.81 1280.45 456.81Z" fill="#ffffff" opacity="1" stroke-width="4" stroke="none"></path><path d="M1300.16 456.81C1302.81 456.81 1304.97 454.66 1304.97 452 1304.97 449.35 1302.81 447.19 1300.16 447.19 1297.5 447.19 1295.35 449.35 1295.35 452 1295.35 454.66 1297.5 456.81 1300.16 456.81Z" fill="#ffffff" opacity="1" stroke-width="4" stroke="none"></path><path d="M1319.95 456.81C1322.6 456.81 1324.76 454.66 1324.76 452 1324.76 449.35 1322.6 447.19 1319.95 447.19 1317.29 447.19 1315.14 449.35 1315.14 452 1315.14 454.66 1317.29 456.81 1319.95 456.81Z" fill="#ffffff" opacity="1" stroke-width="4" stroke="none"></path></g><g><path d="M416.24 989.8H508.04C521.11 989.8 531.69 1000.38 531.69 1013.45V1062.71C531.69 1075.78 521.11 1086.36 508.04 1086.36H416.24C403.17 1086.36 392.59 1075.78 392.59 1062.71V1013.45C392.59 1000.38 403.17 989.8 416.24 989.8Z" fill="#3c2c5b" opacity="0.2" stroke-width="4" stroke="none"></path><path d="M408.08 974.99H499.88C512.95 974.99 523.53 985.57 523.53 998.64V1047.9C523.53 1060.97 512.95 1071.55 499.88 1071.55H408.08C395.01 1071.55 384.43 1060.97 384.43 1047.9V998.64C384.43 985.57 395.01 974.99 408.08 974.99Z" fill="#3c2c5b" opacity="1" stroke-width="4" stroke="none"></path><path d="M453.94 1044.95L516.13 981.49H391.76L453.94 1044.95Z" fill="#090909" opacity="0.2" stroke-width="4" stroke="none"></path><path d="M453.94 1031.2L516.09 981.54C511.97 977.48 506.23 974.99 499.88 974.99H408.08C401.73 974.99 395.99 977.48 391.84 981.49L453.94 1031.2Z" fill="#3c2c5b" opacity="1" stroke-width="4" stroke="none"></path><path d="M515.82 981.71L453.94 1031.13 391.96 981.61" stroke="#090909" stroke-width="4" stroke-linecap="round" stroke-linejoin="round" opacity="1" fill="none"></path><path d="M466.94 1022.14L517.41 1062.56" stroke="#090909" stroke-width="4" stroke-linecap="round" stroke-linejoin="round" opacity="1" fill="none"></path><path d="M390.17 1062.33L440.8 1021.91" stroke="#090909" stroke-width="4" stroke-linecap="round" stroke-linejoin="round" opacity="1" fill="none"></path></g><g><path d="M478.23 796.86C514.64 796.86 544.16 767.34 544.16 730.93 544.16 694.52 514.64 665 478.23 665 441.82 665 412.3 694.52 412.3 730.93 412.3 767.34 441.82 796.86 478.23 796.86Z" fill="#ff4f32" opacity="1" stroke-width="4" stroke="none"></path><path d="M474.66 764.54C473.27 764.54 471.96 764.02 470.99 763.01L448.02 740.04C445.97 738 445.97 734.71 448.02 732.7 450.06 730.69 453.35 730.65 455.36 732.7L474.14 751.48 500.64 717.21C502.41 714.92 505.67 714.51 507.92 716.28 510.21 718.04 510.62 721.3 508.85 723.55L478.71 762.49C477.81 763.67 476.43 764.4 474.94 764.5 474.87 764.5 474.76 764.54 474.66 764.54Z" fill="#000000" opacity="0.2" stroke-width="4" stroke="none"></path><path d="M474.66 755.6C473.27 755.6 471.96 755.08 470.99 754.07L448.02 731.1C445.97 729.06 445.97 725.77 448.02 723.76 450.06 721.75 453.35 721.71 455.36 723.76L474.14 742.54 500.64 708.27C502.41 705.99 505.67 705.57 507.92 707.34 510.21 709.1 510.62 712.36 508.85 714.61L478.71 753.55C477.81 754.73 476.43 755.46 474.94 755.56 474.87 755.56 474.76 755.6 474.66 755.6Z" fill="#ffffff" opacity="1" stroke-width="4" stroke="none"></path></g><g><path d="M771.9 314.05C755.1 304.75 738.9 300.75 728.1 305.05 703.1 313.95 691.8 356.05 691.4 357.75 691.4 357.75 682.2 357.65 680.9 361.35 679.4 365.95 686.1 372.75 686.1 372.75 682.5 383.15 678.5 397.25 684.4 409.45 690 420.95 704.7 426.95 723.1 423.95L722.5 430.75 794.1 441.55C795 438.55 800.3 384.35 801.3 374.05 803.3 352.25 798.8 328.85 771.9 314.05Z" fill="#ac704e" opacity="1" stroke-width="4" stroke="none"></path><path d="M723.2 424.05C723.2 424.05 734.2 421.45 740.9 418.15L721.7 440.05 723.2 424.05Z" fill="#3c2c5b" opacity="0.2" stroke-width="4" stroke="none"></path><path d="M967.6 1107.05L1040.1 1074.25 1036.29 1054.02C1035.6 1049.85 1034.5 1045.85 1033.4 1042.05 1032.6 1039.35 1031.8 1036.55 1030.9 1033.75 1027.5 1022.55 1023.4 1010.05 1018.4 996.25 1013.3 982.05 1008 969.25 1002.6 957.45L904.5 992.05C918 1012.55 931 1033.45 939.1 1049.95 941.3 1054.15 943.1 1058.75 944.7 1063.25L967.6 1107.05Z" fill="#ac704e" opacity="1" stroke-width="4" stroke="none"></path><path d="M1006.5 1066.75C993.3 1072.35 989.3 1094.15 980.9 1095.45 972.6 1096.75 980.3 1075.75 975.1 1063.45 970.5 1052.65 959.9 1056.55 944.4 1063.15 945.4 1065.95 946.2 1068.75 946.9 1071.55 948.4 1078.05 948.6 1083.65 947.1 1088.05 939.2 1111.05 918.5 1123.15 918 1145.05L918.1 1145.65 1045.1 1091.65V1091.55C1042.7 1079.05 1039.8 1066.25 1036.4 1053.75L1006.5 1066.75Z" fill="#ffa0dc" opacity="1" stroke-width="4" stroke="none"></path><path d="M962.9 1089.35L947.63 1087.92" stroke="#ff4f32" stroke-width="4" stroke-linecap="round" stroke-linejoin="round" opacity="1" fill="none"></path><path d="M958.9 1105.55L941.91 1100.18" stroke="#ff4f32" stroke-width="4" stroke-linecap="round" stroke-linejoin="round" opacity="1" fill="none"></path><path d="M678.6 409.05C670.3 405.35 662.4 419.75 655.1 427.45 651.7 431.05 647.6 432.85 645.9 429.45 638.7 415.15 672.5 411.05 675.6 404.95 678.7 398.85 673.6 394.75 661.3 396.75 642.9 391.65 625.8 399.95 618.3 412.05 610.1 425.35 610.8 429.55 594.8 458.05 591.9 463.25 588.9 468.85 586.1 474.45L633.4 504.35 659.3 460.15C659.2 460.15 687.8 413.15 678.6 409.05Z" fill="#ac704e" opacity="1" stroke-width="4" stroke="none"></path><path d="M842.2 484.75C828.9 460.75 806.4 446.85 794.1 441.75 794.4 440.85 795 435.95 795.7 429.15L722.5 429.45 721.4 440.55C721.4 440.55 702.1 440.95 688.7 444.65 677.5 447.75 669.3 450.95 659 460.15L628.3 496.85 586.5 473.15C566.3 513.35 550.8 562.95 580.2 586.85 619.1 618.55 679.4 560.35 679.4 560.35L700.1 627.95 812.7 629.75 832.9 646.05C832.9 646.05 848.9 644.55 858.3 639.05 902.4 613.85 857.6 512.35 842.2 484.75Z" fill="#ffc930" opacity="1" stroke-width="4" stroke="none"></path><path d="M888.2 483.65C880 420.25 815.6 422.25 806.4 375.25 800.9 347.15 801.6 324.75 774.7 309.85 757.9 300.55 738.9 300.75 728.1 305.05 714.6 309.85 705.4 323.05 700.1 334.45L714.7 347.35C714.7 347.35 738.33 334.26 737.9 335.25 727.7 348.55 722.9 355.25 722.9 355.25L738.7 370.45C738.7 370.45 769.3 354.05 775.6 373.65 781.9 393.25 751.1 406.95 751.1 406.95 745 464.15 770.6 483.75 770.6 483.75H793.5C793.5 483.75 786.34 453.48 788 455.15 797.2 467.45 813.1 483.75 813.1 483.75L888.2 483.65Z" fill="#221f1f" opacity="1" stroke-width="4" stroke="none"></path><path d="M812.6 627.85L826.8 541.95" stroke="#3b3934" stroke-width="4" stroke-linecap="round" stroke-linejoin="round" opacity="1" fill="none"></path><path d="M819.7 593.05L834 599.15" stroke="#3b3934" stroke-width="4" stroke-linecap="round" stroke-linejoin="round" opacity="1" fill="none"></path><path d="M680.2 559.65L702.1 541.45" stroke="#3b3934" stroke-width="4" stroke-linecap="round" stroke-linejoin="round" opacity="1" fill="none"></path><path d="M634.6 407.95C641.68 402.56 651.93 398.4 661.14 396.81" stroke="#23211f" stroke-width="4" stroke-linecap="round" stroke-linejoin="round" opacity="1" fill="none"></path><path d="M695.8 381.85L704.2 381.45" stroke="#23211f" stroke-width="4" stroke-linecap="round" stroke-linejoin="round" opacity="1" fill="none"></path><path d="M723.8 423.85C727.9 422.35 731.9 420.85 735.9 419.35" stroke="#23211f" stroke-width="4" stroke-linecap="round" stroke-linejoin="round" opacity="1" fill="none"></path><path d="M722.5 440.65H731.6" stroke="#3b3934" stroke-width="4" stroke-linecap="round" stroke-linejoin="round" opacity="1" fill="none"></path><path d="M748 386.25L757 381.85" stroke="#23211f" stroke-width="4" stroke-linecap="round" stroke-linejoin="round" opacity="1" fill="none"></path><path d="M706.7 364.35C708.47 364.35 709.9 362.92 709.9 361.15 709.9 359.38 708.47 357.95 706.7 357.95 704.93 357.95 703.5 359.38 703.5 361.15 703.5 362.92 704.93 364.35 706.7 364.35Z" fill="#221f1f" opacity="1" stroke-width="4" stroke="none"></path><path d="M803.9 325.15C819.42 325.15 832 312.57 832 297.05 832 281.53 819.42 268.95 803.9 268.95 788.38 268.95 775.8 281.53 775.8 297.05 775.8 312.57 788.38 325.15 803.9 325.15Z" fill="#221f1f" opacity="1" stroke-width="4" stroke="none"></path><path d="M751.1 285.25L818.7 347.65" stroke="#ff4f32" stroke-width="4" stroke-linecap="round" stroke-linejoin="round" opacity="1" fill="none"></path><path d="M1012.5 981.05C1009.2 972.75 1005.8 964.85 1002.4 957.45L905.3 993.45 1012.5 981.05Z" fill="#23211f" opacity="0.2" stroke-width="4" stroke="none"></path><path d="M813.1 1090.55C814.5 1077.95 815.7 1063.45 816.6 1047.15 817.4 1033.35 817.6 1020.35 817.2 1008.35L715 1008.25C719.3 1032.25 722.5 1054.75 722.7 1072.25 722.7 1075.75 722.7 1078.95 722.5 1082.15L730 1124.35 746.2 1136.95 804.4 1130.35 810.6 1109.65C811.2 1105.35 811.8 1101.05 812.3 1096.75 812.7 1094.65 813 1092.65 813.1 1090.55Z" fill="#ac704e" opacity="1" stroke-width="4" stroke="none"></path><path d="M744.9 1125.95C736.7 1123.95 752.1 1107.55 752.1 1094.25 752.1 1082.15 740.3 1081.95 722.6 1081.95H722.5C722.1 1087.65 721.2 1092.65 719.8 1096.65 718.9 1099.35 717.4 1101.95 715.5 1104.05 699.1 1122.15 675.5 1125.85 666.4 1144.95L666.5 1149.15 802.9 1147.25 804.4 1144.95C807 1133.15 809.1 1121.25 810.7 1109.45H779.7C765.5 1109.55 753.2 1128.05 744.9 1125.95Z" fill="#ffa0dc" opacity="1" stroke-width="4" stroke="none"></path><path d="M817.3 1008.45H715.1L817.2 1034.75C817.5 1025.55 817.5 1016.75 817.3 1008.45Z" fill="#23211f" opacity="0.2" stroke-width="4" stroke="none"></path><path d="M936.3 847.75C907.6 807.35 900.8 756.45 876.1 706.15 851.4 655.85 812.5 627.85 812.5 627.85H778.1C778.1 627.75 778 627.75 778 627.75H700.1C700.1 627.75 681.2 751.35 697.3 903.05 700.7 935.65 708.8 975.75 715 1010.45L834.7 1011.05C843.9 978.15 807.4 935.15 798.4 896.85 792.6 871.85 796.5 841.65 801.3 810.55 816.9 842.95 834.2 876.95 852.4 909.95 867.1 936.45 887.3 965.95 905.4 993.55L1021.3 951.05C1012 897.85 950.9 868.25 936.3 847.75Z" fill="#3c2c5b" opacity="1" stroke-width="4" stroke="none"></path><path d="M812.6 627.85L821.23 634.91 832.8 646.15C833.1 646.15 845 644.95 854.1 641.15 831 623.55 822.3 568.65 822.3 568.65L812.6 627.85Z" fill="#3b3934" opacity="0.2" stroke-width="4" stroke="none"></path><path d="M613.4 488.35L597.7 538.35 628.4 496.85 613.4 488.35Z" fill="#3b3934" opacity="0.2" stroke-width="4" stroke="none"></path><path d="M728.2 1112.05L714.93 1104.74" stroke="#ff4f32" stroke-width="4" stroke-linecap="round" stroke-linejoin="round" opacity="1" fill="none"></path><path d="M717.7 1124.35L705.43 1113.84" stroke="#ff4f32" stroke-width="4" stroke-linecap="round" stroke-linejoin="round" opacity="1" fill="none"></path><path d="M813.2 744.85C833.5 845.55 866.6 859.35 871.2 941.35 864.4 930.65 854.6 914.35 849 904.25 819.8 847.85 826 864.15 802 811.45L813.2 744.85Z" fill="#090909" opacity="0.2" stroke-width="4" stroke="none"></path><path d="M849.4 665.45H831.1L836.6 685.85C839.4 696.15 850.6 704.45 858.8 704.45 865.6 704.45 869.5 702.35 871.9 698.95" stroke="#090909" stroke-width="4" stroke-linecap="round" stroke-linejoin="round" opacity="1" fill="none"></path><path d="M801.2 810.55C804.6 782.05 812.9 754.15 814.6 726.45" stroke="#000000" stroke-width="4" stroke-linecap="round" stroke-linejoin="round" opacity="1" fill="none"></path><path d="M776.7 704.55C786.9 704.55 793 696.25 790.3 686.05L784.8 665.75H747.8L753.3 686.05C756.1 696.25 766.6 704.55 776.7 704.55Z" stroke="#090909" stroke-width="4" stroke-linecap="round" stroke-linejoin="round" opacity="1" fill="none"></path><path d="M720.8 628.95C715.1 672.95 713.1 789.15 724.6 856.95 735.8 923.45 752.2 957.15 755.7 1007.75" stroke="#090909" stroke-width="4" stroke-linecap="round" stroke-linejoin="round" opacity="1" fill="none"></path><path d="M598 538.35L627.6 497.35" stroke="#3b3934" stroke-width="4" stroke-linecap="round" stroke-linejoin="round" opacity="1" fill="none"></path><path d="M1047.3 1106.55L920.5 1160.05C918.7 1155.25 917.8 1149.85 917.9 1144.75L1045 1091.15C1046.9 1101.05 1047.3 1106.55 1047.3 1106.55Z" fill="#3c2c5b" opacity="1" stroke-width="4" stroke="none"></path><path d="M800.5 1160.05H662.9C663.2 1154.85 664.4 1149.75 666.5 1145.05H804.5C802.2 1155.15 800.5 1160.05 800.5 1160.05Z" fill="#3c2c5b" opacity="1" stroke-width="4" stroke="none"></path></g><g><path d="M281.33 893.54L264.03 919.45 295.54 906.59 281.33 893.54Z" fill="#ffffff" opacity="1" stroke-width="4" stroke="none"></path><path d="M281.33 893.54L264.03 919.45 295.54 906.59 281.33 893.54Z" fill="#515151" opacity="0.2" stroke-width="4" stroke="none"></path><path d="M281.33 893.54L299.59 933.86 359.26 862.93C359.39 862.8 359.26 862.61 359.07 862.67L281.33 893.54Z" fill="#ffffff" opacity="1" stroke-width="4" stroke="none"></path><path d="M246.09 868.33L281.33 893.54 359.14 862.67C359.2 862.61 359.2 862.48 359.07 862.48L246.09 868.33Z" fill="#ffffff" opacity="1" stroke-width="4" stroke="none"></path><path d="M281.33 893.54L288.98 910.44" stroke="#515151" stroke-width="4" stroke-linecap="round" stroke-linejoin="round" opacity="1" fill="none"></path><path d="M359.07 862.67L281.33 893.54" stroke="#515151" stroke-width="4" stroke-linecap="round" stroke-linejoin="round" opacity="1" fill="none"></path></g></svg>